<?xml version="1.0" encoding="UTF-8" standalone="no"?>
<svg
   xmlns:dc="http://purl.org/dc/elements/1.1/"
   xmlns:cc="http://creativecommons.org/ns#"
   xmlns:rdf="http://www.w3.org/1999/02/22-rdf-syntax-ns#"
   xmlns:svg="http://www.w3.org/2000/svg"
   xmlns="http://www.w3.org/2000/svg"
   xmlns:sodipodi="http://sodipodi.sourceforge.net/DTD/sodipodi-0.dtd"
   xmlns:inkscape="http://www.inkscape.org/namespaces/inkscape"
   width="120.13517mm"
   height="38.16082mm"
   viewBox="0 0 120.13517 38.16082"
   version="1.1"
   id="svg8"
   inkscape:version="1.0.2-2 (e86c870879, 2021-01-15)"
   sodipodi:docname="Logo.svg">
  <defs
     id="defs2" />
  <sodipodi:namedview
     id="base"
     pagecolor="#ffffff"
     bordercolor="#666666"
     borderopacity="1.0"
     inkscape:pageopacity="0.0"
     inkscape:pageshadow="2"
     inkscape:zoom="0.7"
     inkscape:cx="868.79567"
     inkscape:cy="161.10588"
     inkscape:document-units="mm"
     inkscape:current-layer="layer1"
     inkscape:document-rotation="0"
     showgrid="false"
     inkscape:window-width="1920"
     inkscape:window-height="1009"
     inkscape:window-x="-8"
     inkscape:window-y="-8"
     inkscape:window-maximized="1"
     inkscape:pagecheckerboard="false"
     units="in"
     fit-margin-top="0"
     fit-margin-left="0"
     fit-margin-right="0"
     fit-margin-bottom="0" />
  <metadata
     id="metadata5">
    <rdf:RDF>
      <cc:Work
         rdf:about="">
        <dc:format>image/svg+xml</dc:format>
        <dc:type
           rdf:resource="http://purl.org/dc/dcmitype/StillImage" />
        <dc:title></dc:title>
      </cc:Work>
    </rdf:RDF>
  </metadata>
  <g
     inkscape:label="Capa 1"
     inkscape:groupmode="layer"
     id="layer1"
     transform="translate(-1.1909516,-26.701421)">
    <g
       id="g29"
       transform="translate(-66.074465,-68.397395)">
      <path
         style="fill:#0d66af;fill-opacity:1;stroke-width:0.264583"
         d="m 100.27417,133.04286 c -1.064237,-0.36587 -1.856917,-1.16626 -2.119567,-2.14018 -0.11568,-0.42897 -0.80897,-0.851 -2.71119,-1.6504 -1.40567,-0.59072 -4.93631,-2.07141 -7.84585,-3.29041 l -5.290093,-2.21637 -0.927619,2.17276 c -1.19974,2.81013 -1.475908,3.136 -2.486469,2.93388 -1.182559,-0.23651 -2.014272,-0.8784 -2.003707,-1.54641 0.01336,-0.8449 2.992252,-7.64934 3.484787,-7.96003 0.309155,-0.195 2.728666,0.70945 9.637981,3.60283 9.07408,3.79991 9.25121,3.86105 10.812697,3.73273 1.90237,-0.15635 2.97,0.37756 3.6592,1.82994 0.53875,1.13533 0.55713,1.84513 0.0721,2.78314 -0.8651,1.67292 -2.52758,2.35174 -4.28223,1.74852 z m 2.45215,-1.74225 c 0.8054,-0.75664 0.82131,-2.11986 0.0333,-2.85399 -1.84907,-1.72268 -4.544567,0.97523 -2.814407,2.81691 0.737337,0.78485 1.967667,0.80126 2.781097,0.0371 z m -33.817118,1.45272 c -1.833173,-1.13771 -2.179503,-3.74634 -0.69395,-5.227 0.472943,-0.47138 1.009568,-0.90624 1.1925,-0.96635 0.281238,-0.0924 7.069242,-15.86316 6.877439,-15.97853 -0.03646,-0.0219 -1.16434,-0.49335 -2.506397,-1.04758 -1.65307,-0.68268 -2.493854,-1.17706 -2.606751,-1.53277 -0.21179,-0.66729 0.613451,-2.52637 1.20476,-2.71404 0.246678,-0.0783 1.999005,0.50121 3.89406,1.28778 4.373767,1.81541 4.578243,1.92949 4.578243,2.55423 0,0.28483 -1.686226,4.56833 -3.747169,9.51888 -3.428229,8.23487 -3.717919,9.05564 -3.403504,9.64313 0.480147,0.89716 0.428339,2.57032 -0.104783,3.38397 -0.912509,1.39267 -3.294444,1.94094 -4.684448,1.07828 z m 3.2748,-1.7013 c 1.368946,-1.64881 -0.35866,-3.85326 -2.360218,-3.01167 -0.87636,0.36848 -1.145511,0.83509 -1.145511,1.98589 0,1.67393 2.387568,2.37254 3.505729,1.02578 z m 13.963851,-0.11591 c -2.251685,-0.9451 -4.199916,-1.82431 -4.329406,-1.9538 -0.271666,-0.27167 0.982017,-3.19184 1.370315,-3.19184 0.43286,0 8.092561,3.23023 8.457181,3.56655 0.28263,0.26068 0.22487,0.59241 -0.31616,1.81578 -0.36409,0.82326 -0.75782,1.49342 -0.87497,1.48926 -0.11715,-0.004 -2.05528,-0.78084 -4.30696,-1.72595 z m 9.09525,-9.0667 c -3.56648,-1.54729 -4.33983,-2.00052 -4.33983,-2.54345 0,-0.17286 1.7338,-4.35523 3.85288,-9.29416 l 3.85288,-8.97988 -0.28219,-1.282076 c -0.23932,-1.087298 -0.20704,-1.451968 0.21245,-2.400298 0.81876,-1.85094 2.997457,-2.53824 4.718877,-1.48863 1.16381,0.70962 1.69783,1.62069 1.71586,2.92739 0.018,1.304744 -0.60763,2.283364 -1.92136,3.005344 -0.83473,0.45873 -1.14697,1.06793 -4.042287,7.88687 -1.72573,4.06436 -3.19085,7.59305 -3.25583,7.84154 -0.0926,0.35414 0.39742,0.67012 2.26696,1.46176 1.55849,0.65993 2.441347,1.18714 2.547377,1.5212 0.34255,1.07932 -0.727067,2.94334 -1.644577,2.866 -0.11871,-0.01 -1.77525,-0.69473 -3.68121,-1.52161 z m 7.168627,-21.32922 c 1.52947,-0.639046 1.60774,-2.694504 0.13166,-3.457814 -1.47353,-0.76199 -2.908867,0.16111 -2.908867,1.87075 0,0.939488 0.626527,1.618794 1.794437,1.945614 0.041,0.0115 0.4833,-0.14985 0.98277,-0.35855 z m -33.690884,19.02516 c -0.776949,-0.3547 -1.372262,-0.75761 -1.322917,-0.89535 0.04935,-0.13775 0.863625,-2.10378 1.80951,-4.36897 1.216419,-2.91306 1.845471,-4.11888 2.14918,-4.11975 0.860088,-0.002 2.878024,1.07509 2.869924,1.5325 -0.01508,0.85152 -3.330644,8.38718 -3.714426,8.4422 -0.20825,0.0299 -1.014322,-0.23593 -1.791271,-0.59063 z m 29.921487,-1.74469 c -0.61846,-0.28429 -1.12531,-0.66121 -1.12632,-0.8376 -0.003,-0.46973 3.202707,-7.93018 3.589947,-8.35547 0.27652,-0.30369 0.56746,-0.25289 1.81026,0.31609 0.81444,0.37286 1.4808,0.79048 1.4808,0.92805 0,0.13756 -0.78531,2.10868 -1.74513,4.38026 -1.94249,4.59722 -1.88441,4.54553 -4.009557,3.56867 z m -17.150824,-12.52383 -8.750305,-3.79466 -1.725185,0.13849 c -1.700746,0.13652 -1.738634,0.12503 -2.674415,-0.81075 -2.158993,-2.158984 -0.86644,-5.731104 2.073774,-5.731104 1.639384,0 2.603664,0.56664 3.255416,1.91298 l 0.548797,1.13366 7.725797,3.301374 c 4.249185,1.81575 7.767275,3.18408 7.817965,3.04074 0.0507,-0.14335 0.53975,-1.27267 1.08678,-2.50959 0.90192,-2.039356 1.06788,-2.255666 1.78065,-2.320936 0.97621,-0.0894 2.50582,0.817026 2.50582,1.484896 0,0.51634 -2.77616,7.07261 -3.23889,7.64906 -0.14602,0.1819 -0.57833,0.32392 -0.96069,0.31561 -0.38237,-0.008 -4.63285,-1.72271 -9.445514,-3.80977 z m -9.456851,-5.481646 c 1.278986,-1.201548 0.375386,-3.393458 -1.398927,-3.393458 -1.675697,0 -2.597556,2.29346 -1.378402,3.429268 0.75807,0.706246 2.004548,0.690176 2.777329,-0.0358 z m 12.337117,1.145716 c -2.209876,-0.968576 -4.098973,-1.844364 -4.197994,-1.946194 -0.306024,-0.31471 0.998421,-3.12198 1.451616,-3.12399 0.517723,-0.002 7.964876,3.14982 8.425266,3.56613 0.27168,0.245658 0.20743,0.600944 -0.32739,1.810254 -0.36598,0.82754 -0.81574,1.49342 -0.99948,1.47974 -0.18373,-0.0137 -2.14214,-0.81736 -4.352018,-1.78594 z"
         id="path24" />
      <path
         style="fill:#3b3b3b;fill-opacity:1;stroke-width:0.264583"
         d="m 160.16791,112.21727 c -1.8259,-0.3435 -2.3977,-1.5279 -2.3977,-4.96652 0,-2.79918 0.34744,-3.995 1.30451,-4.48993 1.05397,-0.54503 2.6883,-0.76516 4.10432,-0.55281 1.11357,0.16699 1.2028,0.23806 1.2028,0.95791 v 0.77754 l -1.78593,0.004 c -0.98227,0.002 -1.95479,0.11092 -2.16115,0.24154 -0.81319,0.51471 -0.81782,5.60601 -0.006,6.11995 0.20943,0.13252 1.18445,0.24276 2.16672,0.24499 l 1.78592,0.004 v 0.76068 c 0,0.64029 -0.13085,0.78684 -0.82682,0.92604 -0.89159,0.17832 -2.35632,0.16643 -3.38711,-0.0275 z m -48.96732,-0.27591 c 0,-0.11229 0.69445,-2.28518 1.54322,-4.82864 l 1.54321,-4.62447 1.47338,-0.0786 1.47338,-0.0786 1.52026,4.57648 c 0.83614,2.51707 1.57501,4.72532 1.64192,4.90722 0.0847,0.23031 -0.20504,0.33073 -0.95436,0.33073 -1.02612,0 -1.09072,-0.0491 -1.3931,-1.05833 l -0.31708,-1.05834 h -1.96378 -1.96378 l -0.41573,1.05834 c -0.36972,0.94123 -0.51375,1.05833 -1.30163,1.05833 -0.48725,0 -0.88591,-0.0919 -0.88591,-0.20418 z m 5.82084,-3.81194 c 0,-0.53305 -1.15285,-3.92138 -1.33422,-3.92138 -0.14586,0 -1.31162,3.62468 -1.31162,4.0782 0,0.0853 0.59532,0.15513 1.32292,0.15513 0.83949,0 1.32292,-0.11399 1.32292,-0.31195 z m 5.02708,-0.87867 v -4.89479 h 3.13932 c 2.72168,0 3.22738,0.0693 3.80129,0.5207 1.17061,0.9208 1.15587,4.10231 -0.0234,5.05775 -0.50985,0.41307 -0.50625,0.44518 0.25153,2.24132 0.42283,1.00224 0.76879,1.8623 0.76879,1.91125 0,0.0489 -0.4895,0.0524 -1.08778,0.008 -1.06744,-0.0798 -1.10012,-0.11228 -1.7478,-1.73501 l -0.66001,-1.65364 h -1.16262 -1.16262 v 1.71979 1.71979 h -1.05834 -1.05833 z m 5.50333,-0.71438 c 0.17463,-0.17462 0.3175,-0.68659 0.3175,-1.13771 0,-1.16877 -0.42704,-1.4552 -2.16958,-1.4552 h -1.53458 v 1.4552 1.45521 h 1.53458 c 0.84402,0 1.67746,-0.14287 1.85208,-0.3175 z m 6.60825,1.57427 -0.073,-4.03489 -1.52135,-0.0793 c -1.49036,-0.0777 -1.52136,-0.0953 -1.52136,-0.8599 v -0.78054 h 3.96875 3.96875 v 0.77992 c 0,0.75431 -0.0456,0.78255 -1.38906,0.8599 l -1.38906,0.08 -0.073,4.03489 -0.073,4.0349 h -0.91226 -0.91225 z m 6.40925,-0.85989 v -4.89479 h 1.05834 1.05833 v 4.89479 4.89479 h -1.05833 -1.05834 z m 4.49792,0 v -4.89479 h 3.30729 3.30729 v 0.79375 0.79375 h -2.24896 -2.24895 v 1.32291 1.32292 h 1.98437 1.98438 v 0.92604 0.92604 h -1.98438 -1.98437 v 1.85209 1.85208 h -1.05834 -1.05833 z m 8.46667,0 v -4.89479 h 1.05833 1.05833 v 4.89479 4.89479 h -1.05833 -1.05833 z m 12.96458,0 v -4.89479 h 0.92604 0.92604 v 4.89479 4.89479 h -0.92604 -0.92604 z m 3.70417,4.69061 c 0,-0.11229 0.69444,-2.28518 1.54321,-4.82864 l 1.54321,-4.62447 1.43335,-0.0753 1.43335,-0.0752 1.56535,4.57317 c 0.86094,2.51524 1.61782,4.72199 1.68195,4.90389 0.0809,0.22948 -0.2128,0.33073 -0.95941,0.33073 -1.02612,0 -1.09073,-0.0491 -1.39311,-1.05833 l -0.31708,-1.05834 h -1.96378 -1.96378 l -0.41573,1.05834 c -0.36972,0.94123 -0.51375,1.05833 -1.30163,1.05833 -0.48725,0 -0.8859,-0.0919 -0.8859,-0.20418 z m 5.82083,-3.81194 c 0,-0.51379 -1.14959,-3.92138 -1.32292,-3.92138 -0.17333,0 -1.32291,3.40759 -1.32291,3.92138 0,0.19796 0.48342,0.31195 1.32291,0.31195 0.83949,0 1.32292,-0.11399 1.32292,-0.31195 z m 5.02708,-0.87867 v -4.89479 h 1.05834 1.05833 v 4.10104 4.10104 h 2.11667 2.11666 v 0.79375 0.79375 h -3.175 -3.175 z"
         id="path863" />
      <path
         style="fill:#3b3b3b;fill-opacity:1;stroke-width:0.264583"
         d="m 138.0558,126.11744 c -1.70278,-0.55368 -1.98438,-1.23025 -1.98438,-4.76766 0,-4.18352 0.36248,-4.87357 2.73354,-5.20382 1.53054,-0.21318 4.14563,0.071 4.14563,0.45057 0,0.17232 -0.47978,0.20439 -1.32292,0.0884 -0.7276,-0.10007 -1.92755,-0.0988 -2.66655,0.003 -1.12368,0.15454 -1.42871,0.32104 -1.86331,1.01701 -0.45048,0.72141 -0.50937,1.22498 -0.44231,3.78181 0.0634,2.41516 0.16511,3.04639 0.56157,3.48381 0.57009,0.62899 2.58212,0.97457 4.14089,0.71122 l 1.06346,-0.17967 v -1.96112 -1.96112 h -1.32292 c -0.7276,0 -1.32291,-0.11906 -1.32291,-0.26458 0,-0.14926 0.74965,-0.26459 1.71979,-0.26459 h 1.71979 v 2.47758 2.47758 l -1.22755,0.16825 c -1.48081,0.20297 -3.21018,0.1781 -3.93182,-0.0566 z m 19.91571,0.0511 c -0.39698,-0.0687 -0.96252,-0.43095 -1.25677,-0.80502 -0.47606,-0.60521 -0.53498,-1.06798 -0.53498,-4.20156 0,-3.34106 0.0327,-3.55947 0.63855,-4.2638 0.61781,-0.71825 0.72166,-0.74236 3.1979,-0.74236 2.43587,0 2.58826,0.0336 3.15815,0.69613 1.1622,1.35113 1.17877,7.29151 0.0241,8.63391 -0.50201,0.58361 -0.81307,0.67384 -2.53863,0.73635 -1.08159,0.0392 -2.29132,0.0151 -2.6883,-0.0536 z m 4.89409,-1.1715 c 0.44077,-0.54432 0.48795,-1.00175 0.41171,-3.99171 -0.10932,-4.28791 -0.13407,-4.32036 -3.29392,-4.32036 -3.13753,0 -3.27582,0.18303 -3.27057,4.32879 0.006,4.47755 0.31672,4.85951 3.81772,4.68804 1.54147,-0.0755 1.91738,-0.18895 2.33506,-0.70476 z m -51.13585,-3.81416 c 0,-4.17453 0.0584,-4.89479 0.39688,-4.89479 0.32165,0 0.39687,0.42628 0.39687,2.24896 v 2.24896 h 1.14792 c 1.12435,0 1.18451,-0.0462 2.93018,-2.24896 0.98024,-1.23693 1.9663,-2.24896 2.19124,-2.24896 0.28761,0 0.12469,0.35337 -0.54892,1.19063 -0.52686,0.65484 -1.38481,1.72131 -1.90656,2.36994 -1.07934,1.34179 -1.15503,1.0756 1.15052,4.0462 1.01824,1.31196 1.54041,2.18282 1.30883,2.18282 -0.21192,0 -1.20251,-1.07157 -2.20131,-2.38125 -1.78626,-2.34224 -1.83449,-2.38125 -2.94396,-2.38125 h -1.12794 v 2.38125 c 0,1.94027 -0.0735,2.38125 -0.39687,2.38125 -0.33848,0 -0.39688,-0.72026 -0.39688,-4.8948 z m 9.78959,0 c 0,-3.0868 0.0977,-4.89479 0.26458,-4.89479 0.16685,0 0.26458,1.80799 0.26458,4.89479 0,3.08681 -0.0977,4.8948 -0.26458,4.8948 -0.16685,0 -0.26458,-1.80799 -0.26458,-4.8948 z m 3.96875,0 c 0,-3.94847 0.0695,-4.89479 0.35951,-4.89479 0.19774,0 1.64406,1.8493 3.21405,4.10956 1.56999,2.26026 2.95602,4.17228 3.08007,4.24895 0.12404,0.0767 0.22553,-1.77264 0.22553,-4.10956 0,-2.65624 0.0992,-4.24895 0.26459,-4.24895 0.16685,0 0.26458,1.80799 0.26458,4.89479 0,3.74147 -0.0779,4.8939 -0.33073,4.89101 -0.1819,-0.002 -1.64042,-1.90406 -3.24114,-4.22661 -1.60073,-2.32255 -2.99972,-4.22585 -3.10886,-4.22954 -0.10914,-0.004 -0.19844,1.89827 -0.19844,4.2266 0,2.64584 -0.0992,4.23334 -0.26458,4.23334 -0.16685,0 -0.26458,-1.80799 -0.26458,-4.8948 z m 20.90208,0 v -4.94161 l 2.90163,0.0896 c 3.59873,0.11107 3.78269,0.24525 3.98018,2.9032 0.20559,2.76711 -0.0922,5.72357 -0.6309,6.26305 -0.35341,0.35393 -1.05848,0.46716 -3.34928,0.53786 l -2.90163,0.0896 z m 5.80163,3.66849 c 0.48083,-0.61128 0.54837,-1.06309 0.54837,-3.66849 0,-2.60539 -0.0675,-3.0572 -0.54837,-3.66848 -0.51925,-0.66012 -0.6738,-0.69714 -2.91042,-0.69714 h -2.36204 v 4.36562 4.36563 h 2.36204 c 2.23662,0 2.39117,-0.037 2.91042,-0.69714 z m 14.83587,-3.66849 c 0,-4.48556 0.0387,-4.89473 0.46302,-4.89413 0.34276,4.8e-4 0.97275,1.13442 2.42548,4.36563 1.07935,2.40073 2.03185,4.36211 2.11666,4.35863 0.0848,-0.003 1.04517,-1.96802 2.13412,-4.36563 1.47344,-3.24417 2.09949,-4.35929 2.44739,-4.35929 0.4301,0 0.4675,0.39163 0.4675,4.89479 0,3.08681 -0.0977,4.8948 -0.26458,4.8948 -0.16537,0 -0.26459,-1.5875 -0.26459,-4.23334 0,-2.32833 -0.0893,-4.2322 -0.19843,-4.23082 -0.10915,0.001 -1.04788,1.87661 -2.08608,4.16719 -1.03821,2.29057 -2.05024,4.19696 -2.24896,4.23642 -0.23586,0.0468 -1.00383,-1.36259 -2.21174,-4.05914 -1.01773,-2.27198 -1.94047,-4.18653 -2.05052,-4.25454 -0.11006,-0.068 -0.2001,1.78836 -0.2001,4.12528 0,2.65624 -0.0992,4.24895 -0.26458,4.24895 -0.16686,0 -0.26459,-1.80799 -0.26459,-4.8948 z"
         id="path879" />
    </g>
  </g>
</svg>
